<svg width="28" height="28" viewBox="0 0 28 28" fill="none" xmlns="http://www.w3.org/2000/svg">
<path d="M4.63435 26.0855L4.63357 26.0846C4.07996 25.4263 3.8 24.6563 3.8 23.7263C3.8 22.6872 4.12929 21.8025 4.79943 21.028L4.79979 21.0276C5.62552 20.0722 6.44562 19.129 7.2601 18.1982C7.98605 17.3809 8.61211 16.4906 9.13759 15.5287C9.59335 14.6954 10.1363 13.9123 10.7678 13.1788L10.7788 13.166L10.7894 13.1528C11.2336 12.6003 11.7433 12.149 12.3201 11.7931C12.8393 11.4727 13.3926 11.3158 14 11.3158C14.6195 11.3158 15.1809 11.4669 15.7028 11.77C16.2683 12.0984 16.7706 12.5317 17.2106 13.0792L17.2157 13.0856L17.221 13.0919C17.8333 13.8285 18.375 14.6234 18.8461 15.4777L18.8465 15.4784C19.3819 16.4472 20.0106 17.3512 20.7322 18.1893L20.7321 18.1893L20.7374 18.1953C21.5528 19.1273 22.3744 20.0715 23.202 21.028C23.8711 21.8024 24.2 22.6871 24.2 23.7263C24.2 24.6566 23.9203 25.4267 23.3675 26.0851C22.8335 26.7208 22.2266 27 21.49 27C20.2888 27 19.0994 26.8947 17.921 26.684C16.626 26.4526 15.3188 26.3368 14 26.3368C12.6812 26.3368 11.374 26.4526 10.079 26.684C8.90062 26.8947 7.71118 27 6.51 27C5.77344 27 5.16728 26.7209 4.63435 26.0855ZM3.5 12.2632C2.79489 12.2632 2.22841 12.0201 1.74 11.506C1.2494 10.9896 1 10.3683 1 9.57895C1 8.78956 1.2494 8.16833 1.74 7.65191C2.22841 7.13779 2.79489 6.89474 3.5 6.89474C4.20511 6.89474 4.77159 7.13779 5.26 7.65191C5.7506 8.16833 6 8.78956 6 9.57895C6 10.3683 5.7506 10.9896 5.26 11.506C4.77159 12.0201 4.20511 12.2632 3.5 12.2632ZM9.8 6.36842C9.09489 6.36842 8.52841 6.12537 8.04 5.61125C7.5494 5.09483 7.3 4.4736 7.3 3.68421C7.3 2.89483 7.5494 2.27359 8.04 1.75717C8.52841 1.24305 9.09489 1 9.8 1C10.5051 1 11.0716 1.24305 11.56 1.75717C12.0506 2.27359 12.3 2.89483 12.3 3.68421C12.3 4.4736 12.0506 5.09483 11.56 5.61125C11.0716 6.12537 10.5051 6.36842 9.8 6.36842ZM18.2 6.36842C17.4949 6.36842 16.9284 6.12537 16.44 5.61125C15.9494 5.09483 15.7 4.4736 15.7 3.68421C15.7 2.89483 15.9494 2.27359 16.44 1.75717C16.9284 1.24305 17.4949 1 18.2 1C18.9051 1 19.4716 1.24305 19.96 1.75717C20.4506 2.27359 20.7 2.89482 20.7 3.68421C20.7 4.4736 20.4506 5.09483 19.96 5.61125C19.4716 6.12537 18.9051 6.36842 18.2 6.36842ZM24.5 12.2632C23.7949 12.2632 23.2284 12.0201 22.74 11.506C22.2494 10.9896 22 10.3683 22 9.57895C22 8.78956 22.2494 8.16833 22.74 7.65191C23.2284 7.13779 23.7949 6.89474 24.5 6.89474C25.2051 6.89474 25.7716 7.13779 26.26 7.65191C26.7506 8.16833 27 8.78956 27 9.57895C27 10.3683 26.7506 10.9896 26.26 11.506C25.7716 12.0201 25.2051 12.2632 24.5 12.2632Z" stroke="white" stroke-width="2"/>
</svg>
