<svg width="139" height="139" viewBox="0 0 139 139" fill="none" xmlns="http://www.w3.org/2000/svg">
<circle cx="69.5" cy="69.5" r="69.5" fill="#E5ECFE"/>
<path d="M92.9167 83.5833C92.9167 84.6884 92.4777 85.7482 91.6963 86.5296C90.9149 87.311 89.8551 87.75 88.75 87.75H51.25C50.1449 87.75 49.0851 87.311 48.3037 86.5296C47.5223 85.7482 47.0833 84.6884 47.0833 83.5833V60.6667C47.0833 59.5616 47.5223 58.5018 48.3037 57.7204C49.0851 56.939 50.1449 56.5 51.25 56.5H59.5833L63.75 50.25H76.25L80.4167 56.5H88.75C89.8551 56.5 90.9149 56.939 91.6963 57.7204C92.4777 58.5018 92.9167 59.5616 92.9167 60.6667V83.5833Z" stroke="#23C197" stroke-width="2" stroke-linecap="round" stroke-linejoin="round"/>
<path d="M70 79.4167C74.6024 79.4167 78.3333 75.6857 78.3333 71.0833C78.3333 66.481 74.6024 62.75 70 62.75C65.3976 62.75 61.6667 66.481 61.6667 71.0833C61.6667 75.6857 65.3976 79.4167 70 79.4167Z" stroke="#23C197" stroke-width="2" stroke-linecap="round" stroke-linejoin="round"/>
</svg>
