<svg width="169" height="74" viewBox="0 0 169 74" fill="none" xmlns="http://www.w3.org/2000/svg">
  <path
    d="M2.19238 44.3979C8.08625 43.8185 12.5423 43.5288 15.5606 43.5288C18.5788 43.5288 20.9672 43.7476 22.7259 44.1851C24.4964 44.6226 25.952 45.3026 27.0928 46.2249C29.303 48.0224 30.4081 50.9728 30.4081 55.0761C30.4081 56.9209 30.0576 58.6119 29.3565 60.1492C28.6554 61.6865 27.6988 63.005 26.4868 64.1048C25.2748 65.2045 23.8548 66.0619 22.2268 66.6768C20.5989 67.2915 18.858 67.5989 17.0043 67.5989L13.8316 67.5283V72.6544H2.19238V44.3979ZM18.252 50.89C17.2301 50.89 15.7328 51.5936 13.7603 53.0008V59.688L15.8457 58.677C17.2241 58.0029 18.1866 57.3584 18.7332 56.7435C19.7552 55.5965 20.2661 54.4554 20.2661 53.3201C20.2661 52.1849 19.8799 51.434 19.1076 51.0674C18.858 50.9492 18.5728 50.89 18.252 50.89ZM35.8445 70.7035C34.8939 69.8162 34.1334 68.7049 33.563 67.3688C33.0045 66.0205 32.7253 64.5719 32.7253 63.0227C32.7253 61.4736 32.8798 60.1315 33.1887 58.9963C33.8066 56.7376 34.888 54.8397 36.4327 53.3024C37.1695 52.5455 37.9894 51.907 38.8924 51.3866C40.7462 50.3105 42.7009 49.7725 44.7566 49.7725C46.8242 49.7725 48.6364 50.4525 50.193 51.8124C50.6921 52.2499 51.1258 52.7525 51.4942 53.3201L54.043 50.6062H59.8894V72.6544H54.043L51.4942 68.9827C49.5454 71.8445 46.5925 73.2814 42.6355 73.2929C41.5423 73.305 40.3719 73.0917 39.1242 72.6544C37.8884 72.2286 36.7952 71.5781 35.8445 70.7035ZM50.2821 57.2934C49.8543 57.0451 49.3434 56.9209 48.7493 56.9209C48.1551 56.9209 47.5253 57.1337 46.8599 57.5595C46.2063 57.9734 45.6181 58.4996 45.0953 59.1381C43.9307 60.569 43.3485 62.0235 43.3485 63.5017C43.3485 64.5423 43.6693 65.2754 44.311 65.7012C44.9051 66.0914 45.8083 66.0382 47.0203 65.5416C48.2442 65.0331 49.3315 64.3767 50.2821 63.5726V57.2934ZM80.9044 71.0581C78.6465 72.5838 76.2521 73.346 73.7212 73.346C71.2017 73.346 69.1521 72.637 67.5716 71.2175C65.9912 69.7866 65.201 67.8653 65.201 65.4528V56.2291H63.169V50.6062H65.201V44.6462L75.86 43.5642V50.6062H80.9044V56.2291H75.86V61.7988C75.86 63.4662 76.2339 64.6783 76.9829 65.4351C77.7434 66.1801 79.0501 66.5526 80.9044 66.5526V71.0581ZM89.6734 40.3892C91.4202 40.3892 92.7154 40.7557 93.5591 41.4889C94.4027 42.2102 94.8191 43.1326 94.807 44.256C94.807 45.3795 94.2662 46.4141 93.1852 47.3602C92.1158 48.3062 90.6834 48.7792 88.8893 48.7792C86.3705 48.7792 84.8015 48.0224 84.1836 46.5088C84.0058 46.0831 83.9166 45.61 83.9166 45.0897C83.9166 44.5694 84.041 44.0255 84.2904 43.4578C84.5406 42.8902 84.9144 42.3817 85.4139 41.9323C86.5185 40.9035 87.9388 40.3892 89.6734 40.3892ZM94.5041 72.6544H84.1836V50.6062H94.5041V72.6544ZM115.59 71.0581C113.332 72.5838 110.938 73.346 108.407 73.346C105.888 73.346 103.838 72.637 102.258 71.2175C100.677 69.7866 99.8871 67.8653 99.8871 65.4528V56.2291H97.855V50.6062H99.8871V44.6462L110.546 43.5642V50.6062H115.59V56.2291H110.546V61.7988C110.546 63.4662 110.92 64.6783 111.668 65.4351C112.429 66.1801 113.736 66.5526 115.59 66.5526V71.0581ZM121.329 70.7035C120.379 69.8162 119.618 68.7049 119.048 67.3688C118.489 66.0205 118.21 64.5719 118.21 63.0227C118.21 61.4736 118.365 60.1315 118.674 58.9963C119.292 56.7376 120.373 54.8397 121.918 53.3024C122.654 52.5455 123.474 51.907 124.377 51.3866C126.231 50.3105 128.186 49.7725 130.242 49.7725C132.309 49.7725 134.121 50.4525 135.678 51.8124C136.177 52.2499 136.611 52.7525 136.979 53.3201L139.528 50.6062H145.374V72.6544H139.528L136.979 68.9827C135.03 71.8445 132.078 73.2814 128.12 73.2929C127.027 73.305 125.857 73.0917 124.609 72.6544C123.373 72.2286 122.28 71.5781 121.329 70.7035ZM135.767 57.2934C135.339 57.0451 134.828 56.9209 134.234 56.9209C133.64 56.9209 133.01 57.1337 132.345 57.5595C131.692 57.9734 131.103 58.4996 130.58 59.1381C129.415 60.569 128.833 62.0235 128.833 63.5017C128.833 64.5423 129.155 65.2754 129.796 65.7012C130.39 66.0914 131.293 66.0382 132.505 65.5416C133.729 65.0331 134.817 64.3767 135.767 63.5726V57.2934ZM166.015 57.2224C163.377 56.6075 161.458 56.3001 160.257 56.3001C159.913 56.3001 159.645 56.3769 159.456 56.5307C159.277 56.6844 159.188 56.8558 159.188 57.0451C159.188 57.4353 159.675 57.8314 160.649 58.2335C161.636 58.6238 162.539 59.008 163.359 59.3864C164.179 59.7649 164.886 60.2261 165.48 60.77C166.763 61.9526 167.405 63.7145 167.405 66.0559C167.405 68.3853 166.556 70.1768 164.856 71.4308C163.157 72.684 160.858 73.311 157.958 73.311C155.059 73.311 152.742 73.0446 151.007 72.5125C150.246 72.2878 149.664 72.0221 149.26 71.7146V65.1336C149.426 65.1454 149.718 65.2222 150.134 65.3642C150.549 65.506 151.239 65.7307 152.201 66.0382C153.163 66.3338 154.037 66.4816 154.821 66.4816C155.617 66.4816 156.015 66.192 156.015 65.6125C156.015 65.1632 155.659 64.7256 154.946 64.2999C154.625 64.1107 154.263 63.9156 153.859 63.7145C152.183 62.8986 150.983 61.9585 150.258 60.8942C149.545 59.8181 149.188 58.5587 149.188 57.116C149.188 54.5499 150.234 52.6342 152.326 51.3689C154.085 50.3046 156.384 49.7725 159.224 49.7725C161.208 49.7725 163.199 49.9677 165.195 50.3578C165.623 50.4406 165.896 50.4998 166.015 50.5352V57.2224Z"
    fill="#545d72" />
  <path
    d="M139.425 15.809C141.759 15.809 143.65 13.9266 143.65 11.6044C143.65 9.28233 141.759 7.3999 139.425 7.3999C137.091 7.3999 135.2 9.28233 135.2 11.6044C135.2 13.9266 137.091 15.809 139.425 15.809Z"
    fill="#23C197" />
  <path
    d="M147.03 9.0817C149.364 9.0817 151.255 7.19927 151.255 4.87715C151.255 2.55505 149.364 0.672607 147.03 0.672607C144.696 0.672607 142.805 2.55505 142.805 4.87715C142.805 7.19927 144.696 9.0817 147.03 9.0817Z"
    fill="#23C197" />
  <path
    d="M157.17 9.0817C159.504 9.0817 161.395 7.19927 161.395 4.87715C161.395 2.55505 159.504 0.672607 157.17 0.672607C154.836 0.672607 152.945 2.55505 152.945 4.87715C152.945 7.19927 154.836 9.0817 157.17 9.0817Z"
    fill="#23C197" />
  <path
    d="M164.775 15.809C167.109 15.809 169 13.9266 169 11.6044C169 9.28233 167.109 7.3999 164.775 7.3999C162.441 7.3999 160.55 9.28233 160.55 11.6044C160.55 13.9266 162.441 15.809 164.775 15.809Z"
    fill="#23C197" />
  <path
    d="M161.125 20.6191C159.654 18.9036 158.421 17.4405 156.933 15.725C156.156 14.8168 155.159 13.9087 153.976 13.505C153.79 13.4377 153.604 13.3873 153.418 13.3536C152.996 13.2864 152.539 13.2864 152.1 13.2864C151.661 13.2864 151.204 13.2864 150.765 13.3705C150.579 13.4041 150.393 13.4546 150.207 13.5218C149.024 13.9255 148.044 14.8336 147.25 15.7418C145.779 17.4573 144.546 18.9205 143.059 20.6359C140.845 22.8391 138.124 25.2777 138.631 28.6918C139.121 30.4073 140.354 32.1059 142.568 32.5936C143.802 32.8459 147.74 31.8536 151.931 31.8536H152.235C156.426 31.8536 160.364 32.8291 161.598 32.5936C163.812 32.1059 165.045 30.3905 165.535 28.6918C166.059 25.2609 163.338 22.8223 161.125 20.6191Z"
    fill="#23C197" />
</svg>